<svg width="461" height="324" viewBox="0 0 461 324" fill="none" xmlns="http://www.w3.org/2000/svg">
<rect y="43.3164" width="1.82171" height="21.479" fill="#1C242C"/>
<rect x="44.085" width="21.8605" height="1.78992" fill="#1C242C"/>
<rect x="69.5894" width="21.8605" height="1.78992" fill="#1C242C"/>
<path fill-rule="evenodd" clip-rule="evenodd" d="M28.0538 1.79004C13.566 1.79004 1.82129 13.5347 1.82129 28.0226V297.027C1.82129 311.515 13.566 323.259 28.0538 323.259H433.93C448.418 323.259 460.162 311.515 460.162 297.027V28.0226C460.162 13.5348 448.418 1.79004 433.93 1.79004H28.0538ZM28.7828 13.2451C20.3316 13.2451 13.4805 20.0962 13.4805 28.5474V296.501C13.4805 304.953 20.3316 311.804 28.7828 311.804H433.201C441.653 311.804 448.504 304.953 448.504 296.501V28.5474C448.504 20.0962 441.653 13.2451 433.201 13.2451H28.7828Z" fill="#07090B"/>
<path fill-rule="evenodd" clip-rule="evenodd" d="M28.0538 1.79004C13.566 1.79004 1.82129 13.5347 1.82129 28.0226V297.027C1.82129 311.515 13.566 323.259 28.0538 323.259H433.93C448.418 323.259 460.162 311.515 460.162 297.027V28.0226C460.162 13.5348 448.418 1.79004 433.93 1.79004H28.0538ZM28.7828 13.2451C20.3316 13.2451 13.4805 20.0962 13.4805 28.5474V296.501C13.4805 304.953 20.3316 311.804 28.7828 311.804H433.201C441.653 311.804 448.504 304.953 448.504 296.501V28.5474C448.504 20.0962 441.653 13.2451 433.201 13.2451H28.7828Z" fill="#2E2E2E"/>
</svg>
