<svg width="316" height="648" viewBox="0 0 316 648" fill="none" xmlns="http://www.w3.org/2000/svg">
<rect x="15" y="16" width="286" height="33" fill="black"/>
<path fill-rule="evenodd" clip-rule="evenodd" d="M298.72 48.999C298.72 32.424 285.274 18.999 268.673 18.999H240.504C238.015 18.999 235.997 21.0137 235.997 23.499V25.749C235.997 34.899 228.635 42.249 219.471 42.249H96.2783C87.1139 42.249 79.7524 34.899 79.7524 25.749V23.499C79.7524 21.0137 77.7346 18.999 75.2454 18.999H47.0763C30.4754 18.999 17.0294 32.424 17.0294 48.999V598.999C17.0294 615.574 30.4754 628.999 47.0763 628.999H268.673C285.274 628.999 298.72 615.574 298.72 598.999V48.999ZM45.0716 4.99902H270.678C294.715 4.99902 309.735 24.499 309.735 48.499V604.499C309.735 628.499 294.715 643.499 270.678 643.499H45.0716C21.034 643.499 6.01416 628.499 6.01416 604.499V48.499C6.01416 24.499 21.034 4.99902 45.0716 4.99902Z" fill="#0C0E0F"/>
<g opacity="0.4">
<path fill-rule="evenodd" clip-rule="evenodd" d="M151.161 4.79004V9.77193H49.3377C39.3395 9.40581 29.2904 9.77193 21.2495 17.6992C25.0995 10.0195 36.2967 4.79004 49.3377 4.79004H151.161Z" fill="url(#paint0_linear_631_19890)"/>
<path fill-rule="evenodd" clip-rule="evenodd" d="M151.158 4.79004H267.014C280.055 4.79004 291.252 10.0195 295.102 17.6992C287.061 9.77193 277.012 9.40581 267.014 9.77193H151.158V4.79004Z" fill="url(#paint1_linear_631_19890)"/>
<path fill-rule="evenodd" clip-rule="evenodd" d="M165.194 643.064V638.083H48.3354C38.3372 638.449 28.2881 638.083 20.2472 630.155C24.0972 637.835 35.2943 643.064 48.3354 643.064H165.194Z" fill="url(#paint2_linear_631_19890)"/>
<path fill-rule="evenodd" clip-rule="evenodd" d="M165.193 643.064H267.016C280.057 643.064 291.254 637.835 295.104 630.155C287.063 638.083 277.014 638.449 267.016 638.083H165.193V643.064Z" fill="url(#paint3_linear_631_19890)"/>
<g filter="url(#filter0_i_631_19890)">
<path fill-rule="evenodd" clip-rule="evenodd" d="M5.92407 331.498V49.7074C5.92407 36.6942 12.3925 18.2139 24.3343 13.998C13.9059 23.2457 9.54734 39.7306 9.91424 49.7074V331.498H5.92407Z" fill="url(#paint4_linear_631_19890)"/>
</g>
<g filter="url(#filter1_i_631_19890)">
<path fill-rule="evenodd" clip-rule="evenodd" d="M5.92407 331.499H9.91424V598.095C9.54734 608.072 13.9059 624.557 24.3343 633.805C12.3925 629.589 5.92407 611.108 5.92407 598.095V331.499Z" fill="url(#paint5_linear_631_19890)"/>
</g>
<g filter="url(#filter2_i_631_19890)">
<path fill-rule="evenodd" clip-rule="evenodd" d="M310.012 325.5V49.7093C310.012 36.6962 303.543 18.2159 291.602 14C302.03 23.2476 306.389 39.7325 306.022 49.7093V325.5H310.012Z" fill="url(#paint6_linear_631_19890)"/>
</g>
<g filter="url(#filter3_i_631_19890)">
<path fill-rule="evenodd" clip-rule="evenodd" d="M310.012 325.501H306.022V598.097C306.389 608.074 302.03 624.559 291.602 633.807C303.544 629.591 310.012 611.11 310.012 598.097V325.501Z" fill="url(#paint7_linear_631_19890)"/>
</g>
</g>
<path fill-rule="evenodd" clip-rule="evenodd" d="M2.2536 87.1826V111.164C1.00897 111.164 0 110.155 0 108.91V89.4362C0 88.1916 1.00897 87.1826 2.2536 87.1826ZM2.25372 180.109V133.645C1.00909 133.645 0.00012207 134.654 0.00012207 135.899V177.856C0.00012207 179.1 1.00909 180.109 2.25372 180.109ZM316 153.254V223.688C316 224.933 314.991 225.942 313.746 225.942V151C314.991 151 316 152.009 316 153.254ZM2.25372 192.102V238.566C1.00909 238.566 0.00012207 237.557 0.00012207 236.312V194.356C0.00012207 193.111 1.00909 192.102 2.25372 192.102Z" fill="#2A2A2A"/>
<path fill-rule="evenodd" clip-rule="evenodd" d="M2.2536 87.1826V111.164C1.00897 111.164 0 110.155 0 108.91V89.4362C0 88.1916 1.00897 87.1826 2.2536 87.1826ZM2.25372 180.109V133.645C1.00909 133.645 0.00012207 134.654 0.00012207 135.899V177.856C0.00012207 179.1 1.00909 180.109 2.25372 180.109ZM316 153.254V223.688C316 224.933 314.991 225.942 313.746 225.942V151C314.991 151 316 152.009 316 153.254ZM2.25372 192.102V238.566C1.00909 238.566 0.00012207 237.557 0.00012207 236.312V194.356C0.00012207 193.111 1.00909 192.102 2.25372 192.102Z" fill="url(#paint8_linear_631_19890)" fill-opacity="0.8"/>
<g filter="url(#filter4_ii_631_19890)">
<path fill-rule="evenodd" clip-rule="evenodd" d="M50.0749 0H265.665C291.802 0 313.993 21.1381 313.993 47.2133V600.787C313.993 626.862 291.802 648 265.665 648H50.0749C23.9376 648 1.74683 626.862 1.74683 600.787V47.2133C1.74683 21.1381 23.9376 0 50.0749 0ZM50.0749 5C26.012 5 6.50521 24.4605 6.50521 48.4662V599.534C6.50521 623.539 26.012 643 50.0749 643H265.665C289.728 643 309.234 623.539 309.234 599.534V48.4662C309.234 24.4605 289.728 5 265.665 5H50.0749Z" fill="#19181A"/>
</g>
<path d="M1.75024 68.999H6.51497V75.999H1.75024V68.999Z" fill="url(#paint9_linear_631_19890)"/>
<path d="M1.75024 572.001H6.51497V579.001H1.75024V572.001Z" fill="url(#paint10_linear_631_19890)"/>
<path d="M313.987 68.999L309.234 68.999V75.999H313.987V68.999Z" fill="url(#paint11_linear_631_19890)"/>
<path d="M313.987 572.001H309.234V579.001H313.987V572.001Z" fill="url(#paint12_linear_631_19890)"/>
<path d="M196.441 25.9842C196.441 28.8814 194.086 31.2301 191.182 31.2301C188.278 31.2301 185.924 28.8814 185.924 25.9842C185.924 23.087 188.278 20.7383 191.182 20.7383C194.086 20.7383 196.441 23.087 196.441 25.9842Z" fill="#191D20"/>
<path d="M140.476 23.7359C139.232 23.7359 138.223 24.7425 138.223 25.9842C138.223 27.2259 139.232 28.2325 140.476 28.2325H173.529C174.774 28.2325 175.783 27.2259 175.783 25.9842C175.783 24.7425 174.774 23.7359 173.529 23.7359H140.476Z" fill="#191D20"/>
<path d="M43.1594 31.7879C41.4293 31.7879 40.1967 32.9708 40.1967 34.5903V34.6014C40.1967 36.1159 41.269 37.2324 42.8001 37.2324C43.8945 37.2324 44.591 36.6741 44.8839 36.044H44.9945C44.9945 36.1048 44.989 36.1656 44.989 36.2264C44.9281 37.752 44.392 38.9901 43.1262 38.9901C42.4243 38.9901 41.9323 38.6253 41.7223 38.067L41.7057 38.0117H40.3018L40.3128 38.0725C40.5671 39.2941 41.6615 40.1619 43.1262 40.1619C45.1327 40.1619 46.3431 38.57 46.3431 35.8837V35.8727C46.3431 32.9984 44.8618 31.7879 43.1594 31.7879ZM43.1539 36.138C42.2474 36.138 41.5896 35.4747 41.5896 34.5516V34.5406C41.5896 33.6507 42.2916 32.9487 43.1705 32.9487C44.0548 32.9487 44.7457 33.6617 44.7457 34.5737V34.5848C44.7457 35.4857 44.0548 36.138 43.1539 36.138ZM48.728 34.7948C49.2366 34.7948 49.6069 34.4079 49.6069 33.9215C49.6069 33.4296 49.2366 33.0482 48.728 33.0482C48.2251 33.0482 47.8492 33.4296 47.8492 33.9215C47.8492 34.4079 48.2251 34.7948 48.728 34.7948ZM48.728 38.8961C49.2366 38.8961 49.6069 38.5147 49.6069 38.0228C49.6069 37.5309 49.2366 37.1495 48.728 37.1495C48.2251 37.1495 47.8492 37.5309 47.8492 38.0228C47.8492 38.5147 48.2251 38.8961 48.728 38.8961ZM54.9821 39.9629H56.3473V38.4318H57.4196V37.2545H56.3473V31.9869H54.3299C53.2465 33.6341 52.1134 35.4692 51.0798 37.2655V38.4318H54.9821V39.9629ZM52.4063 37.2877V37.2047C53.1802 35.8505 54.1032 34.3747 54.9213 33.1256H55.0042V37.2877H52.4063ZM60.6005 39.9629H62.0265V31.9869H60.606L58.5222 33.4517V34.7948L60.5065 33.3909H60.6005V39.9629Z" fill="white"/>
<path fill-rule="evenodd" clip-rule="evenodd" d="M272.277 31.3477H283.462C284.404 31.3477 284.745 31.4457 285.09 31.6299C285.434 31.8141 285.704 32.0843 285.888 32.4287C286.073 32.773 286.171 33.1146 286.171 34.0565V37.3175C286.171 38.2594 286.073 38.601 285.888 38.9453C285.704 39.2897 285.434 39.5599 285.09 39.7441C284.745 39.9282 284.404 40.0263 283.462 40.0263H272.277C271.335 40.0263 270.993 39.9282 270.649 39.7441C270.305 39.5599 270.034 39.2897 269.85 38.9453C269.666 38.601 269.568 38.2594 269.568 37.3175V34.0565C269.568 33.1146 269.666 32.773 269.85 32.4287C270.034 32.0843 270.305 31.8141 270.649 31.6299C270.993 31.4457 271.335 31.3477 272.277 31.3477ZM272.277 32.1023C271.532 32.1023 271.272 32.1525 271.005 32.2954C270.792 32.4092 270.63 32.5717 270.516 32.7846C270.373 33.0516 270.323 33.3116 270.323 34.0565V37.3175C270.323 38.0623 270.373 38.3224 270.516 38.5894C270.63 38.8023 270.792 38.9648 271.005 39.0786C271.272 39.2214 271.532 39.2717 272.277 39.2717H283.462C284.207 39.2717 284.467 39.2214 284.734 39.0786C284.947 38.9648 285.109 38.8023 285.223 38.5894C285.366 38.3224 285.416 38.0623 285.416 37.3175V34.0565C285.416 33.3116 285.366 33.0516 285.223 32.7846C285.109 32.5717 284.947 32.4092 284.734 32.2954C284.467 32.1525 284.207 32.1023 283.462 32.1023H272.277ZM288.057 35.642C288.057 36.5752 286.925 37.1514 286.925 37.1514V34.1327C286.925 34.1327 288.057 34.7088 288.057 35.642Z" fill="black" fill-opacity="0.36"/>
<rect x="271.077" y="32.7939" width="13.584" height="5.78578" rx="1.20747" fill="white"/>
<path fill-rule="evenodd" clip-rule="evenodd" d="M248.153 32.4076C248.135 32.4951 248.135 32.6003 248.135 32.8107V38.6216C248.135 38.832 248.135 38.9372 248.153 39.0247C248.224 39.384 248.505 39.6648 248.864 39.7362C248.952 39.7536 249.057 39.7536 249.267 39.7536C249.478 39.7536 249.583 39.7536 249.67 39.7362C250.03 39.6648 250.311 39.384 250.382 39.0247C250.399 38.9372 250.399 38.832 250.399 38.6216V32.8107C250.399 32.6003 250.399 32.4951 250.382 32.4076C250.311 32.0484 250.03 31.7676 249.67 31.6961C249.583 31.6787 249.478 31.6787 249.267 31.6787C249.057 31.6787 248.952 31.6787 248.864 31.6961C248.505 31.7676 248.224 32.0484 248.153 32.4076ZM244.589 34.6222C244.589 34.4118 244.589 34.3066 244.606 34.2191C244.677 33.8599 244.958 33.5791 245.317 33.5076C245.405 33.4902 245.51 33.4902 245.721 33.4902C245.931 33.4902 246.036 33.4902 246.124 33.5076C246.483 33.5791 246.764 33.8599 246.835 34.2191C246.853 34.3066 246.853 34.4118 246.853 34.6222V38.6219C246.853 38.8323 246.853 38.9375 246.835 39.025C246.764 39.3843 246.483 39.6651 246.124 39.7365C246.036 39.7539 245.931 39.7539 245.721 39.7539C245.51 39.7539 245.405 39.7539 245.317 39.7365C244.958 39.6651 244.677 39.3843 244.606 39.025C244.589 38.9375 244.589 38.8323 244.589 38.6219V34.6222ZM241.134 35.9547C241.117 36.0422 241.117 36.1474 241.117 36.3578V38.6218C241.117 38.8322 241.117 38.9374 241.134 39.0249C241.206 39.3841 241.487 39.6649 241.846 39.7364C241.933 39.7538 242.039 39.7538 242.249 39.7538C242.459 39.7538 242.565 39.7538 242.652 39.7364C243.011 39.6649 243.292 39.3841 243.364 39.0249C243.381 38.9374 243.381 38.8322 243.381 38.6218V36.3578C243.381 36.1474 243.381 36.0422 243.364 35.9547C243.292 35.5955 243.011 35.3146 242.652 35.2432C242.565 35.2258 242.459 35.2258 242.249 35.2258C242.039 35.2258 241.933 35.2258 241.846 35.2432C241.487 35.3146 241.206 35.5955 241.134 35.9547ZM237.512 37.4641C237.495 37.5515 237.495 37.6567 237.495 37.8671V38.6218C237.495 38.8322 237.495 38.9374 237.512 39.0249C237.583 39.3841 237.864 39.6649 238.224 39.7364C238.311 39.7538 238.416 39.7538 238.627 39.7538C238.837 39.7538 238.942 39.7538 239.03 39.7364C239.389 39.6649 239.67 39.3841 239.741 39.0249C239.759 38.9374 239.759 38.8322 239.759 38.6218V37.8671C239.759 37.6567 239.759 37.5515 239.741 37.4641C239.67 37.1048 239.389 36.824 239.03 36.7525C238.942 36.7351 238.837 36.7351 238.627 36.7351C238.416 36.7351 238.311 36.7351 238.224 36.7525C237.864 36.824 237.583 37.1048 237.512 37.4641Z" fill="white"/>
<path fill-rule="evenodd" clip-rule="evenodd" d="M259.984 33.2623C261.67 33.2624 263.292 33.9103 264.514 35.0721C264.606 35.1618 264.753 35.1607 264.844 35.0696L265.724 34.1818C265.77 34.1356 265.795 34.073 265.795 34.0079C265.794 33.9427 265.768 33.8805 265.722 33.8348C262.514 30.7608 257.454 30.7608 254.246 33.8348C254.2 33.8804 254.173 33.9427 254.173 34.0078C254.172 34.0729 254.198 34.1356 254.244 34.1818L255.124 35.0696C255.214 35.1608 255.362 35.162 255.454 35.0721C256.676 33.9102 258.298 33.2623 259.984 33.2623V33.2623ZM259.984 36.151C260.911 36.1509 261.804 36.4953 262.491 37.1172C262.584 37.2054 262.73 37.2035 262.821 37.1129L263.699 36.2251C263.745 36.1785 263.771 36.1153 263.77 36.0497C263.77 35.984 263.743 35.9214 263.696 35.8758C261.604 33.9304 258.366 33.9304 256.274 35.8758C256.227 35.9214 256.2 35.9841 256.2 36.0497C256.199 36.1154 256.225 36.1786 256.271 36.2251L257.149 37.1129C257.24 37.2035 257.386 37.2054 257.479 37.1172C258.166 36.4957 259.058 36.1514 259.984 36.151V36.151ZM261.673 38.2693C261.72 38.2231 261.746 38.1597 261.744 38.0938C261.743 38.028 261.714 37.9657 261.666 37.9215C260.695 37.1005 259.273 37.1005 258.303 37.9215C258.254 37.9656 258.225 38.028 258.224 38.0938C258.222 38.1596 258.248 38.2231 258.295 38.2693L259.815 39.8031C259.86 39.8482 259.921 39.8736 259.984 39.8736C260.047 39.8736 260.108 39.8482 260.153 39.8031L261.673 38.2693Z" fill="white"/>
<defs>
<filter id="filter0_i_631_19890" x="5.92407" y="13.998" width="18.4103" height="317.5" filterUnits="userSpaceOnUse" color-interpolation-filters="sRGB">
<feFlood flood-opacity="0" result="BackgroundImageFix"/>
<feBlend mode="normal" in="SourceGraphic" in2="BackgroundImageFix" result="shape"/>
<feColorMatrix in="SourceAlpha" type="matrix" values="0 0 0 0 0 0 0 0 0 0 0 0 0 0 0 0 0 0 127 0" result="hardAlpha"/>
<feOffset dx="2.27867" dy="1.13933"/>
<feComposite in2="hardAlpha" operator="arithmetic" k2="-1" k3="1"/>
<feColorMatrix type="matrix" values="0 0 0 0 0.364955 0 0 0 0 0.364955 0 0 0 0 0.364955 0 0 0 0.5 0"/>
<feBlend mode="normal" in2="shape" result="effect1_innerShadow_631_19890"/>
</filter>
<filter id="filter1_i_631_19890" x="5.92407" y="331.499" width="18.4103" height="302.306" filterUnits="userSpaceOnUse" color-interpolation-filters="sRGB">
<feFlood flood-opacity="0" result="BackgroundImageFix"/>
<feBlend mode="normal" in="SourceGraphic" in2="BackgroundImageFix" result="shape"/>
<feColorMatrix in="SourceAlpha" type="matrix" values="0 0 0 0 0 0 0 0 0 0 0 0 0 0 0 0 0 0 127 0" result="hardAlpha"/>
<feOffset dx="2.27867" dy="1.13933"/>
<feComposite in2="hardAlpha" operator="arithmetic" k2="-1" k3="1"/>
<feColorMatrix type="matrix" values="0 0 0 0 0.364955 0 0 0 0 0.364955 0 0 0 0 0.364955 0 0 0 0.5 0"/>
<feBlend mode="normal" in2="shape" result="effect1_innerShadow_631_19890"/>
</filter>
<filter id="filter2_i_631_19890" x="291.602" y="14" width="18.4103" height="311.5" filterUnits="userSpaceOnUse" color-interpolation-filters="sRGB">
<feFlood flood-opacity="0" result="BackgroundImageFix"/>
<feBlend mode="normal" in="SourceGraphic" in2="BackgroundImageFix" result="shape"/>
<feColorMatrix in="SourceAlpha" type="matrix" values="0 0 0 0 0 0 0 0 0 0 0 0 0 0 0 0 0 0 127 0" result="hardAlpha"/>
<feOffset dx="2.27867" dy="1.13933"/>
<feComposite in2="hardAlpha" operator="arithmetic" k2="-1" k3="1"/>
<feColorMatrix type="matrix" values="0 0 0 0 0.364955 0 0 0 0 0.364955 0 0 0 0 0.364955 0 0 0 0.5 0"/>
<feBlend mode="normal" in2="shape" result="effect1_innerShadow_631_19890"/>
</filter>
<filter id="filter3_i_631_19890" x="291.602" y="325.501" width="18.4103" height="308.306" filterUnits="userSpaceOnUse" color-interpolation-filters="sRGB">
<feFlood flood-opacity="0" result="BackgroundImageFix"/>
<feBlend mode="normal" in="SourceGraphic" in2="BackgroundImageFix" result="shape"/>
<feColorMatrix in="SourceAlpha" type="matrix" values="0 0 0 0 0 0 0 0 0 0 0 0 0 0 0 0 0 0 127 0" result="hardAlpha"/>
<feOffset dx="2.27867" dy="1.13933"/>
<feComposite in2="hardAlpha" operator="arithmetic" k2="-1" k3="1"/>
<feColorMatrix type="matrix" values="0 0 0 0 0.364955 0 0 0 0 0.364955 0 0 0 0 0.364955 0 0 0 0.5 0"/>
<feBlend mode="normal" in2="shape" result="effect1_innerShadow_631_19890"/>
</filter>
<filter id="filter4_ii_631_19890" x="1.74683" y="0" width="312.246" height="649.139" filterUnits="userSpaceOnUse" color-interpolation-filters="sRGB">
<feFlood flood-opacity="0" result="BackgroundImageFix"/>
<feBlend mode="normal" in="SourceGraphic" in2="BackgroundImageFix" result="shape"/>
<feColorMatrix in="SourceAlpha" type="matrix" values="0 0 0 0 0 0 0 0 0 0 0 0 0 0 0 0 0 0 127 0" result="hardAlpha"/>
<feOffset/>
<feGaussianBlur stdDeviation="3.418"/>
<feComposite in2="hardAlpha" operator="arithmetic" k2="-1" k3="1"/>
<feColorMatrix type="matrix" values="0 0 0 0 0.184314 0 0 0 0 0.180392 0 0 0 0 0.196078 0 0 0 1 0"/>
<feBlend mode="normal" in2="shape" result="effect1_innerShadow_631_19890"/>
<feColorMatrix in="SourceAlpha" type="matrix" values="0 0 0 0 0 0 0 0 0 0 0 0 0 0 0 0 0 0 127 0" result="hardAlpha"/>
<feOffset dy="1.13933"/>
<feGaussianBlur stdDeviation="2.27867"/>
<feComposite in2="hardAlpha" operator="arithmetic" k2="-1" k3="1"/>
<feColorMatrix type="matrix" values="0 0 0 0 0.0980392 0 0 0 0 0.0941176 0 0 0 0 0.101961 0 0 0 1 0"/>
<feBlend mode="normal" in2="effect1_innerShadow_631_19890" result="effect2_innerShadow_631_19890"/>
</filter>
<linearGradient id="paint0_linear_631_19890" x1="21.2495" y1="11.2446" x2="162.187" y2="11.2446" gradientUnits="userSpaceOnUse">
<stop stop-color="#383838" stop-opacity="0.428838"/>
<stop offset="0.5" stop-color="#383838"/>
<stop offset="1" stop-color="#383838" stop-opacity="0.43"/>
</linearGradient>
<linearGradient id="paint1_linear_631_19890" x1="154.165" y1="11.2446" x2="295.102" y2="11.2446" gradientUnits="userSpaceOnUse">
<stop stop-color="#383838" stop-opacity="0.428838"/>
<stop offset="0.5" stop-color="#383838"/>
<stop offset="1" stop-color="#383838" stop-opacity="0.43"/>
</linearGradient>
<linearGradient id="paint2_linear_631_19890" x1="20.2472" y1="636.61" x2="161.185" y2="636.61" gradientUnits="userSpaceOnUse">
<stop stop-color="#383838" stop-opacity="0.428838"/>
<stop offset="0.5" stop-color="#383838"/>
<stop offset="1" stop-color="#383838" stop-opacity="0.43"/>
</linearGradient>
<linearGradient id="paint3_linear_631_19890" x1="154.166" y1="636.61" x2="295.104" y2="636.61" gradientUnits="userSpaceOnUse">
<stop stop-color="#383838" stop-opacity="0.428838"/>
<stop offset="0.5" stop-color="#383838"/>
<stop offset="1" stop-color="#383838" stop-opacity="0.43"/>
</linearGradient>
<linearGradient id="paint4_linear_631_19890" x1="15.1292" y1="91.7989" x2="5.92407" y2="91.7989" gradientUnits="userSpaceOnUse">
<stop stop-color="#727272" stop-opacity="0.01"/>
<stop offset="1" stop-color="#727272" stop-opacity="0.652259"/>
</linearGradient>
<linearGradient id="paint5_linear_631_19890" x1="15.1292" y1="400.402" x2="5.92407" y2="400.402" gradientUnits="userSpaceOnUse">
<stop stop-color="#727272" stop-opacity="0.01"/>
<stop offset="1" stop-color="#727272" stop-opacity="0.652259"/>
</linearGradient>
<linearGradient id="paint6_linear_631_19890" x1="300.807" y1="91.8009" x2="310.012" y2="91.8009" gradientUnits="userSpaceOnUse">
<stop stop-color="#727272" stop-opacity="0.01"/>
<stop offset="1" stop-color="#727272" stop-opacity="0.652259"/>
</linearGradient>
<linearGradient id="paint7_linear_631_19890" x1="300.807" y1="400.404" x2="310.012" y2="400.404" gradientUnits="userSpaceOnUse">
<stop stop-color="#727272" stop-opacity="0.01"/>
<stop offset="1" stop-color="#727272" stop-opacity="0.652259"/>
</linearGradient>
<linearGradient id="paint8_linear_631_19890" x1="3.19519" y1="111.164" x2="3.19519" y2="87.1826" gradientUnits="userSpaceOnUse">
<stop stop-color="white" stop-opacity="0.01"/>
<stop offset="1" stop-color="#19181A"/>
</linearGradient>
<linearGradient id="paint9_linear_631_19890" x1="8.51092" y1="68.999" x2="2.74381" y2="68.999" gradientUnits="userSpaceOnUse">
<stop/>
<stop offset="1" stop-color="#1C1B1D"/>
</linearGradient>
<linearGradient id="paint10_linear_631_19890" x1="8.51092" y1="572.001" x2="2.74381" y2="572.001" gradientUnits="userSpaceOnUse">
<stop/>
<stop offset="1" stop-color="#1C1B1D"/>
</linearGradient>
<linearGradient id="paint11_linear_631_19890" x1="307.243" y1="68.999" x2="312.996" y2="68.999" gradientUnits="userSpaceOnUse">
<stop/>
<stop offset="1" stop-color="#1C1B1D"/>
</linearGradient>
<linearGradient id="paint12_linear_631_19890" x1="307.243" y1="572.001" x2="312.996" y2="572.001" gradientUnits="userSpaceOnUse">
<stop/>
<stop offset="1" stop-color="#1C1B1D"/>
</linearGradient>
</defs>
</svg>
