<svg width="119" height="36" viewBox="0 0 119 36" fill="none" xmlns="http://www.w3.org/2000/svg">
<rect width="119" height="36" rx="5.58685" fill="white"/>
<rect width="119" height="36" rx="5.58685" fill="url(#paint0_linear_17_3243)"/>
<path d="M38.5616 12.4695H40.5462C42.3017 12.4695 43.3328 11.3769 43.3328 9.51511V9.50692C43.3328 7.65328 42.2935 6.56482 40.5462 6.56482H38.5616V12.4695ZM39.2982 11.8066V7.22771H40.4971C41.8352 7.22771 42.5799 8.04201 42.5799 9.51511V9.52329C42.5799 10.9882 41.8352 11.8066 40.4971 11.8066H39.2982ZM46.573 12.5513C47.7474 12.5513 48.5412 11.7002 48.5412 10.3417V10.3335C48.5412 8.97497 47.7433 8.13203 46.5689 8.13203C45.3945 8.13203 44.6007 8.97906 44.6007 10.3335V10.3417C44.6007 11.6961 45.3904 12.5513 46.573 12.5513ZM46.5771 11.9212C45.8242 11.9212 45.329 11.3442 45.329 10.3417V10.3335C45.329 9.33915 45.8283 8.76219 46.5689 8.76219C47.3218 8.76219 47.8129 9.33506 47.8129 10.3335V10.3417C47.8129 11.3401 47.3259 11.9212 46.5771 11.9212ZM50.7748 12.4695H51.499L52.4565 9.17547H52.4729L53.4345 12.4695H54.1588L55.3454 8.21387H54.6416L53.7905 11.6756H53.7741L52.8084 8.21387H52.121L51.1594 11.6756H51.143L50.2919 8.21387H49.584L50.7748 12.4695ZM56.601 12.4695H57.313V9.96522C57.313 9.24095 57.7509 8.76219 58.4219 8.76219C59.0766 8.76219 59.3999 9.14274 59.3999 9.83428V12.4695H60.1119V9.70743C60.1119 8.73764 59.5718 8.13203 58.6388 8.13203C57.9923 8.13203 57.5585 8.42256 57.3294 8.81948H57.313V8.21387H56.601V12.4695ZM61.7276 12.4695H62.4396V6.56482H61.7276V12.4695ZM65.8352 12.5513C67.0096 12.5513 67.8034 11.7002 67.8034 10.3417V10.3335C67.8034 8.97497 67.0055 8.13203 65.8311 8.13203C64.6567 8.13203 63.8629 8.97906 63.8629 10.3335V10.3417C63.8629 11.6961 64.6526 12.5513 65.8352 12.5513ZM65.8393 11.9212C65.0864 11.9212 64.5913 11.3442 64.5913 10.3417V10.3335C64.5913 9.33915 65.0905 8.76219 65.8311 8.76219C66.584 8.76219 67.0751 9.33506 67.0751 10.3335V10.3417C67.0751 11.3401 66.5881 11.9212 65.8393 11.9212ZM70.438 12.5513C71.0068 12.5513 71.5182 12.2444 71.7679 11.7779H71.7842V12.4695H72.4962V9.52738C72.4962 8.67626 71.8661 8.13203 70.8594 8.13203C69.8569 8.13203 69.2472 8.69672 69.1858 9.39644L69.1818 9.44145H69.8692L69.8774 9.40462C69.9592 9.02407 70.3029 8.76219 70.8513 8.76219C71.4446 8.76219 71.7842 9.07727 71.7842 9.59694V9.95294L70.5648 10.0225C69.5869 10.0798 69.0222 10.534 69.0222 11.2583V11.2665C69.0222 12.0398 69.5909 12.5513 70.438 12.5513ZM69.7505 11.2665V11.2583C69.7505 10.8614 70.0779 10.6077 70.6467 10.5749L71.7842 10.5054V10.8532C71.7842 11.4711 71.2686 11.9334 70.5976 11.9334C70.0861 11.9334 69.7505 11.6756 69.7505 11.2665ZM75.6709 12.5513C76.2806 12.5513 76.7553 12.2444 77.0212 11.7493H77.0376V12.4695H77.7496V6.56482H77.0376V8.92587H77.0212C76.7553 8.43483 76.2601 8.13203 75.6586 8.13203C74.5906 8.13203 73.8623 8.99543 73.8623 10.3376V10.3417C73.8623 11.6838 74.5825 12.5513 75.6709 12.5513ZM75.81 11.9212C75.0571 11.9212 74.5906 11.3196 74.5906 10.3417V10.3376C74.5906 9.3678 75.0571 8.76219 75.81 8.76219C76.5261 8.76219 77.0417 9.38826 77.0417 10.3376V10.3417C77.0417 11.2951 76.5302 11.9212 75.81 11.9212ZM83.5343 12.5513C84.7087 12.5513 85.5025 11.7002 85.5025 10.3417V10.3335C85.5025 8.97497 84.7046 8.13203 83.5302 8.13203C82.3558 8.13203 81.562 8.97906 81.562 10.3335V10.3417C81.562 11.6961 82.3517 12.5513 83.5343 12.5513ZM83.5384 11.9212C82.7855 11.9212 82.2903 11.3442 82.2903 10.3417V10.3335C82.2903 9.33915 82.7896 8.76219 83.5302 8.76219C84.2831 8.76219 84.7741 9.33506 84.7741 10.3335V10.3417C84.7741 11.3401 84.2872 11.9212 83.5384 11.9212ZM86.8931 12.4695H87.6051V9.96522C87.6051 9.24095 88.043 8.76219 88.714 8.76219C89.3687 8.76219 89.692 9.14274 89.692 9.83428V12.4695H90.404V9.70743C90.404 8.73764 89.8639 8.13203 88.9309 8.13203C88.2844 8.13203 87.8506 8.42256 87.6215 8.81948H87.6051V8.21387H86.8931V12.4695ZM95.7549 12.5513C95.8941 12.5513 96.0455 12.535 96.1355 12.5227V11.9457C96.0741 11.9498 95.9923 11.9621 95.9063 11.9621C95.5258 11.9621 95.3253 11.8352 95.3253 11.381V8.80311H96.1355V8.21387H95.3253V7.06404H94.5887V8.21387H93.9668V8.80311H94.5887V11.3851C94.5887 12.1994 94.9734 12.5513 95.7549 12.5513ZM97.6079 12.4695H98.3199V9.98568C98.3199 9.26141 98.7578 8.76219 99.4166 8.76219C100.079 8.76219 100.472 9.21639 100.472 9.98568V12.4695H101.184V9.86292C101.184 8.83175 100.566 8.13203 99.6621 8.13203C99.0278 8.13203 98.5654 8.41438 98.3363 8.89313H98.3199V6.56482H97.6079V12.4695ZM104.51 12.5513C105.439 12.5513 106.135 11.9948 106.274 11.291L106.282 11.2501H105.582L105.57 11.2869C105.447 11.6511 105.067 11.9212 104.527 11.9212C103.77 11.9212 103.287 11.4097 103.271 10.534H106.335V10.2721C106.335 8.99543 105.627 8.13203 104.465 8.13203C103.303 8.13203 102.55 9.03635 102.55 10.354V10.358C102.55 11.6961 103.287 12.5513 104.51 12.5513ZM104.461 8.76219C105.083 8.76219 105.542 9.15092 105.611 9.97749H103.283C103.361 9.18366 103.843 8.76219 104.461 8.76219Z" fill="#212A31"/>
<path d="M38.1865 28.8499H39.6817L40.8368 25.5826H45.4331L46.5881 28.8499H48.0833L43.843 17.4342H42.4348L38.1865 28.8499ZM43.1231 19.143H43.1547L45.0059 24.3722H41.2719L43.1231 19.143ZM49.1829 31.6187H50.5595V27.4733H50.5911C51.1053 28.4227 52.0626 29.0081 53.2255 29.0081C55.2903 29.0081 56.6985 27.3388 56.6985 24.744V24.7361C56.6985 22.1413 55.3061 20.4641 53.2018 20.4641C52.023 20.4641 51.1053 21.0574 50.5911 22.0147H50.5595V20.6223H49.1829V31.6187ZM52.9328 27.7898C51.5483 27.7898 50.5516 26.5794 50.5516 24.744V24.7361C50.5516 22.8928 51.5404 21.6824 52.9328 21.6824C54.3884 21.6824 55.2903 22.8453 55.2903 24.7361V24.744C55.2903 26.6189 54.3884 27.7898 52.9328 27.7898ZM58.0908 31.6187H59.4673V27.4733H59.499C60.0132 28.4227 60.9704 29.0081 62.1334 29.0081C64.1982 29.0081 65.6063 27.3388 65.6063 24.744V24.7361C65.6063 22.1413 64.214 20.4641 62.1096 20.4641C60.9309 20.4641 60.0132 21.0574 59.499 22.0147H59.4673V20.6223H58.0908V31.6187ZM61.8407 27.7898C60.4562 27.7898 59.4594 26.5794 59.4594 24.744V24.7361C59.4594 22.8928 60.4483 21.6824 61.8407 21.6824C63.2963 21.6824 64.1982 22.8453 64.1982 24.7361V24.744C64.1982 26.6189 63.2963 27.7898 61.8407 27.7898ZM74.269 29.0397C76.8796 29.0397 78.4856 27.7581 78.4856 25.7329V25.725C78.4856 23.9845 77.5046 23.0352 75.1629 22.521L73.8971 22.2441C72.4098 21.9198 71.7216 21.3343 71.7216 20.4008V20.3929C71.7216 19.2933 72.7184 18.5655 74.2452 18.5575C75.6929 18.5575 76.666 19.2458 76.84 20.4087L76.8559 20.5195H78.2799L78.272 20.4008C78.1454 18.5338 76.5157 17.2443 74.2848 17.2443C71.9352 17.2443 70.2739 18.5575 70.2659 20.4325V20.4404C70.2659 22.1096 71.3102 23.1143 73.5411 23.6048L74.8069 23.8817C76.3733 24.2298 77.0299 24.7915 77.0299 25.7962V25.8041C77.0299 26.9828 75.9936 27.7265 74.3481 27.7265C72.6946 27.7265 71.5871 27.0224 71.421 25.8753L71.4051 25.7645H69.9811L69.9891 25.8753C70.1315 27.8293 71.8007 29.0397 74.269 29.0397ZM82.6151 29.0081C82.8841 29.0081 83.1768 28.9764 83.3509 28.9527V27.8372C83.2322 27.8451 83.074 27.8689 82.9078 27.8689C82.1721 27.8689 81.7845 27.6236 81.7845 26.7455V21.7615H83.3509V20.6223H81.7845V18.3993H80.3605V20.6223H79.158V21.7615H80.3605V26.7534C80.3605 28.3277 81.1041 29.0081 82.6151 29.0081ZM88.0026 29.0081C90.273 29.0081 91.8078 27.3626 91.8078 24.7361V24.7203C91.8078 22.0938 90.2651 20.4641 87.9947 20.4641C85.7242 20.4641 84.1894 22.1017 84.1894 24.7203V24.7361C84.1894 27.3547 85.7163 29.0081 88.0026 29.0081ZM88.0105 27.7898C86.5548 27.7898 85.5976 26.6743 85.5976 24.7361V24.7203C85.5976 22.7979 86.5628 21.6824 87.9947 21.6824C89.4503 21.6824 90.3996 22.79 90.3996 24.7203V24.7361C90.3996 26.6664 89.4582 27.7898 88.0105 27.7898ZM93.2001 28.8499H94.5767V23.7709C94.5767 22.521 95.2729 21.7774 96.3408 21.7774C96.6731 21.7774 96.9658 21.8169 97.0766 21.8565V20.5195C96.9658 20.5037 96.7601 20.4641 96.5228 20.4641C95.5972 20.4641 94.8852 21.0654 94.6083 22.0147H94.5767V20.6223H93.2001V28.8499ZM101.19 29.0081C102.986 29.0081 104.331 27.9322 104.6 26.5715L104.616 26.4924H103.263L103.239 26.5636C103.002 27.2676 102.266 27.7898 101.222 27.7898C99.7584 27.7898 98.8249 26.8009 98.7933 25.1079H104.719V24.6016C104.719 22.1334 103.35 20.4641 101.103 20.4641C98.8566 20.4641 97.4009 22.2125 97.4009 24.7598V24.7677C97.4009 27.3547 98.8249 29.0081 101.19 29.0081ZM101.095 21.6824C102.298 21.6824 103.184 22.434 103.318 24.032H98.817C98.9673 22.4973 99.9008 21.6824 101.095 21.6824Z" fill="#212A31"/>
<path fill-rule="evenodd" clip-rule="evenodd" d="M23.6425 6.14551C22.4608 6.19492 21.029 6.93026 20.1816 7.9189C19.4198 8.79688 18.7548 10.1981 18.9341 11.5416C20.2534 11.6445 21.5977 10.874 22.419 9.88485C23.2386 8.89393 23.7935 7.51877 23.6425 6.14551ZM23.3107 29.5276C24.9118 29.4978 25.9259 28.0793 26.9063 26.652C27.9805 25.0887 28.4548 23.5729 28.5256 23.3468C28.5295 23.3342 28.5322 23.3257 28.5337 23.3213C28.5329 23.3209 28.531 23.3201 28.5278 23.3188C28.3738 23.2565 25.4102 22.0562 25.3808 18.5867C25.3518 15.7217 27.6454 14.2964 27.898 14.1395C27.9067 14.1341 27.913 14.1301 27.9167 14.1277C26.5362 12.1166 24.3865 11.8408 23.6206 11.8093C22.5018 11.6966 21.4163 12.1226 20.5295 12.4707C19.9659 12.6919 19.4825 12.8816 19.1217 12.8816C18.7201 12.8816 18.2235 12.6853 17.6661 12.4649C16.9366 12.1765 16.1031 11.847 15.2426 11.8628C13.2495 11.8925 11.4102 13.0183 10.3837 14.7977C8.31092 18.3806 9.85216 23.6898 11.8715 26.5949C12.8599 28.0158 14.0353 29.6149 15.581 29.5573C16.2711 29.5297 16.7623 29.3214 17.2702 29.1059C17.8573 28.8569 18.4668 28.5984 19.4318 28.5984C20.3508 28.5984 20.9321 28.8489 21.4912 29.0899C22.0259 29.3204 22.5404 29.5421 23.3107 29.5276Z" fill="#212A31"/>
<defs>
<linearGradient id="paint0_linear_17_3243" x1="59.5" y1="0" x2="59.5" y2="36" gradientUnits="userSpaceOnUse">
<stop stop-color="white"/>
<stop offset="1" stop-color="white" stop-opacity="0"/>
</linearGradient>
</defs>
</svg>
