<svg version="1.1" xmlns="http://www.w3.org/2000/svg" xmlns:xlink="http://www.w3.org/1999/xlink" x="0px" y="0px" viewBox="0 0 489.6 489.6" style="enable-background:new 0 0 489.6 489.6;" xml:space="preserve">
<g>
<path d="M489.6,244.8C489.6,109.8,379.8,0,244.8,0S0,109.8,0,244.8s109.8,244.8,244.8,244.8S489.6,379.8,489.6,244.8zM19.8,244.8c0-124.1,100.9-225,225-225s225,100.9,225,225s-100.9,225-225,225S19.8,368.9,19.8,244.8z"></path>
<path class="st1" d="M326.1,224.1c1.9-1.9,2.9-4.5,2.9-7s-1-5.1-2.9-7c-3.9-3.9-10.1-3.9-14,0l-67.3,67.3l-67.3-67.3c-3.9-3.9-10.1-3.9-14,0s-3.9,10.1,0,14l74.3,74.3c3.9,3.9,10.1,3.9,14,0L326.1,224.1z"></path>
</g>
</svg>